HIERARCHY
ROOT Hips
{
  OFFSET -19.0583 96.0243 -1.88019
  CHANNELS 6 Xposition Yposition Zposition Zrotation Xrotation Yrotation
  JOINT Spine
  {
    OFFSET 0 10.1816 0.1315
    CHANNELS 6 Xposition Yposition Zposition Zrotation Xrotation Yrotation
    JOINT Spine1
    {
      OFFSET 0 10.0835 -1.0008
      CHANNELS 6 Xposition Yposition Zposition Zrotation Xrotation Yrotation
      JOINT Spine2
      {
        OFFSET 0 9.1 -1.3734
        CHANNELS 6 Xposition Yposition Zposition Zrotation Xrotation Yrotation
        JOINT Neck
        {
          OFFSET 0 16.6717 -2.5162
          CHANNELS 6 Xposition Yposition Zposition Zrotation Xrotation Yrotation
          JOINT Head
          {
            OFFSET 0 9.6179 1.685
            CHANNELS 6 Xposition Yposition Zposition Zrotation Xrotation Yrotation
            JOINT HeadTop_End
            {
              OFFSET 0 17.8152 2.585
              CHANNELS 6 Xposition Yposition Zposition Zrotation Xrotation Yrotation
              End Site
              {
                OFFSET 0 0 0
              }
            }
            JOINT LeftEye
            {
              OFFSET 3.0676 6.4095 9.2836
              CHANNELS 6 Xposition Yposition Zposition Zrotation Xrotation Yrotation
              End Site
              {
                OFFSET 0 0 0
              }
            }
            JOINT RightEye
            {
              OFFSET -3.0676 6.4095 9.2835
              CHANNELS 6 Xposition Yposition Zposition Zrotation Xrotation Yrotation
              End Site
              {
                OFFSET 0 0 0
              }
            }
          }
        }
        JOINT LeftShoulder
        {
          OFFSET 4.5704 10.946 -2.628
          CHANNELS 6 Xposition Yposition Zposition Zrotation Xrotation Yrotation
          JOINT LeftArm
          {
            OFFSET 10.5924 -0.5246 -2.2321
            CHANNELS 6 Xposition Yposition Zposition Zrotation Xrotation Yrotation
            JOINT LeftForeArm
            {
              OFFSET 27.8415 -0.0001 0
              CHANNELS 6 Xposition Yposition Zposition Zrotation Xrotation Yrotation
              JOINT LeftHand
              {
                OFFSET 28.3288 0 0
                CHANNELS 6 Xposition Yposition Zposition Zrotation Xrotation Yrotation
                JOINT LeftHandThumb1
                {
                  OFFSET 2.4661 -1.575 2.6824
                  CHANNELS 6 Xposition Yposition Zposition Zrotation Xrotation Yrotation
                  JOINT LeftHandThumb2
                  {
                    OFFSET 3.2298 -1.8647 1.8647
                    CHANNELS 6 Xposition Yposition Zposition Zrotation Xrotation Yrotation
                    JOINT LeftHandThumb3
                    {
                      OFFSET 2.6526 -1.5315 1.5315
                      CHANNELS 6 Xposition Yposition Zposition Zrotation Xrotation Yrotation
                      End Site
                      {
                        OFFSET 1.9546 -1.1285 1.1285
                      }
                    }
                  }
                }
                JOINT LeftHandIndex1
                {
                  OFFSET 9.1093 -0.5171 2.2601
                  CHANNELS 6 Xposition Yposition Zposition Zrotation Xrotation Yrotation
                  JOINT LeftHandIndex2
                  {
                    OFFSET 3.6764 0 0
                    CHANNELS 6 Xposition Yposition Zposition Zrotation Xrotation Yrotation
                    JOINT LeftHandIndex3
                    {
                      OFFSET 2.8831 0 0
                      CHANNELS 6 Xposition Yposition Zposition Zrotation Xrotation Yrotation
                      End Site
                      {
                        OFFSET 2.3927 0 0
                      }
                    }
                  }
                }
                JOINT LeftHandMiddle1
                {
                  OFFSET 9.5334 0 0
                  CHANNELS 6 Xposition Yposition Zposition Zrotation Xrotation Yrotation
                  JOINT LeftHandMiddle2
                  {
                    OFFSET 3.6982 0 0
                    CHANNELS 6 Xposition Yposition Zposition Zrotation Xrotation Yrotation
                    JOINT LeftHandMiddle3
                    {
                      OFFSET 2.9509 0 0
                      CHANNELS 6 Xposition Yposition Zposition Zrotation Xrotation Yrotation
                      End Site
                      {
                        OFFSET 2.8339 0 0
                      }
                    }
                  }
                }
                JOINT LeftHandRing1
                {
                  OFFSET 9.1045 -0.0439 -1.8651
                  CHANNELS 6 Xposition Yposition Zposition Zrotation Xrotation Yrotation
                  JOINT LeftHandRing2
                  {
                    OFFSET 3.154 0 0
                    CHANNELS 6 Xposition Yposition Zposition Zrotation Xrotation Yrotation
                    JOINT LeftHandRing3
                    {
                      OFFSET 2.9377 0 0
                      CHANNELS 6 Xposition Yposition Zposition Zrotation Xrotation Yrotation
                      End Site
                      {
                        OFFSET 2.6475 0 0
                      }
                    }
                  }
                }
                JOINT LeftHandPinky1
                {
                  OFFSET 8.0778 -0.4887 -3.8061
                  CHANNELS 6 Xposition Yposition Zposition Zrotation Xrotation Yrotation
                  JOINT LeftHandPinky2
                  {
                    OFFSET 3.6 0 0
                    CHANNELS 6 Xposition Yposition Zposition Zrotation Xrotation Yrotation
                    JOINT LeftHandPinky3
                    {
                      OFFSET 2.1142 0 0
                      CHANNELS 6 Xposition Yposition Zposition Zrotation Xrotation Yrotation
                      End Site
                      {
                        OFFSET 1.9757 0 0
                      }
                    }
                  }
                }
              }
            }
          }
        }
        JOINT RightShoulder
        {
          OFFSET -4.57 10.9462 -2.628
          CHANNELS 6 Xposition Yposition Zposition Zrotation Xrotation Yrotation
          JOINT RightArm
          {
            OFFSET -10.5928 -0.5248 -2.2321
            CHANNELS 6 Xposition Yposition Zposition Zrotation Xrotation Yrotation
            JOINT RightForeArm
            {
              OFFSET -27.8415 0 0
              CHANNELS 6 Xposition Yposition Zposition Zrotation Xrotation Yrotation
              JOINT RightHand
              {
                OFFSET -28.3288 0 0.0001
                CHANNELS 6 Xposition Yposition Zposition Zrotation Xrotation Yrotation
                JOINT RightHandPinky1
                {
                  OFFSET -8.0767 -0.4885 -3.806
                  CHANNELS 6 Xposition Yposition Zposition Zrotation Xrotation Yrotation
                  JOINT RightHandPinky2
                  {
                    OFFSET -3.6 0 0.0001
                    CHANNELS 6 Xposition Yposition Zposition Zrotation Xrotation Yrotation
                    JOINT RightHandPinky3
                    {
                      OFFSET -2.1142 0 0
                      CHANNELS 6 Xposition Yposition Zposition Zrotation Xrotation Yrotation
                      End Site
                      {
                        OFFSET -1.9757 0 0
                      }
                    }
                  }
                }
                JOINT RightHandRing1
                {
                  OFFSET -9.1036 -0.0439 -1.8651
                  CHANNELS 6 Xposition Yposition Zposition Zrotation Xrotation Yrotation
                  JOINT RightHandRing2
                  {
                    OFFSET -3.154 0 0
                    CHANNELS 6 Xposition Yposition Zposition Zrotation Xrotation Yrotation
                    JOINT RightHandRing3
                    {
                      OFFSET -2.9377 0 0
                      CHANNELS 6 Xposition Yposition Zposition Zrotation Xrotation Yrotation
                      End Site
                      {
                        OFFSET -2.6475 0 0
                      }
                    }
                  }
                }
                JOINT RightHandMiddle1
                {
                  OFFSET -9.5325 0 0
                  CHANNELS 6 Xposition Yposition Zposition Zrotation Xrotation Yrotation
                  JOINT RightHandMiddle2
                  {
                    OFFSET -3.6982 0 0
                    CHANNELS 6 Xposition Yposition Zposition Zrotation Xrotation Yrotation
                    JOINT RightHandMiddle3
                    {
                      OFFSET -2.9509 0 0
                      CHANNELS 6 Xposition Yposition Zposition Zrotation Xrotation Yrotation
                      End Site
                      {
                        OFFSET -2.8339 0 0.0001
                      }
                    }
                  }
                }
                JOINT RightHandIndex1
                {
                  OFFSET -9.1083 -0.5168 2.2601
                  CHANNELS 6 Xposition Yposition Zposition Zrotation Xrotation Yrotation
                  JOINT RightHandIndex2
                  {
                    OFFSET -3.6764 0 0
                    CHANNELS 6 Xposition Yposition Zposition Zrotation Xrotation Yrotation
                    JOINT RightHandIndex3
                    {
                      OFFSET -2.8831 0 0
                      CHANNELS 6 Xposition Yposition Zposition Zrotation Xrotation Yrotation
                      End Site
                      {
                        OFFSET -2.3927 0 0
                      }
                    }
                  }
                }
                JOINT RightHandThumb1
                {
                  OFFSET -2.4648 -1.5727 2.6826
                  CHANNELS 6 Xposition Yposition Zposition Zrotation Xrotation Yrotation
                  JOINT RightHandThumb2
                  {
                    OFFSET -3.2298 -1.8647 1.8647
                    CHANNELS 6 Xposition Yposition Zposition Zrotation Xrotation Yrotation
                    JOINT RightHandThumb3
                    {
                      OFFSET -2.6526 -1.5314 1.5314
                      CHANNELS 6 Xposition Yposition Zposition Zrotation Xrotation Yrotation
                      End Site
                      {
                        OFFSET -1.9546 -1.1285 1.1285
                      }
                    }
                  }
                }
              }
            }
          }
        }
      }
    }
  }
  JOINT LeftUpLeg
  {
    OFFSET 8.2078 -6.7517 -1.5996
    CHANNELS 6 Xposition Yposition Zposition Zrotation Xrotation Yrotation
    JOINT LeftLeg
    {
      OFFSET 0 -44.3705 0.2846
      CHANNELS 6 Xposition Yposition Zposition Zrotation Xrotation Yrotation
      JOINT LeftFoot
      {
        OFFSET 0 -44.4279 -2.9822
        CHANNELS 6 Xposition Yposition Zposition Zrotation Xrotation Yrotation
        JOINT LeftToeBase
        {
          OFFSET 0 -8.7287 10.7106
          CHANNELS 6 Xposition Yposition Zposition Zrotation Xrotation Yrotation
          End Site
          {
            OFFSET 0 -0.0007 9.2781
          }
        }
      }
    }
  }
  JOINT RightUpLeg
  {
    OFFSET -8.2078 -6.7517 -1.5996
    CHANNELS 6 Xposition Yposition Zposition Zrotation Xrotation Yrotation
    JOINT RightLeg
    {
      OFFSET 0 -44.3705 0.2862
      CHANNELS 6 Xposition Yposition Zposition Zrotation Xrotation Yrotation
      JOINT RightFoot
      {
        OFFSET 0 -44.4277 -2.9838
        CHANNELS 6 Xposition Yposition Zposition Zrotation Xrotation Yrotation
        JOINT RightToeBase
        {
          OFFSET 0 -8.7287 10.7106
          CHANNELS 6 Xposition Yposition Zposition Zrotation Xrotation Yrotation
          End Site
          {
            OFFSET 0 -0.0007 9.2781
          }
        }
      }
    }
  }
}
MOTION
Frames:	4
Frame Time:	0.0333333
-19.0583 96.0243 -1.88019 -11.0389 14.0264 9.16314 0 10.1816 0.1315 5.53794 -0.0926468 -3.26746 -3.55271e-015 10.0835 -1.0008 9.30085 -0.609857 -7.84656 1.77636e-015 9.1 -1.3734 9.28936 -0.473738 -7.87181 4.44089e-015 16.6717 -2.5162 -1.08574 -2.28093 2.98642 -8.88178e-016 9.6179 1.685 -5.59103 6.01643 14.2637 -7.21645e-016 17.8152 2.585 2.18663e-015 -6.36111e-015 -3.97569e-016 3.0676 6.4095 9.2836 2.18663e-015 -6.36111e-015 -3.97569e-016 -3.0676 6.4095 9.2835 2.18663e-015 -6.36111e-015 -3.97569e-016 4.5704 10.946 -2.628 -6.73458 1.29482 -0.622754 10.5924 -0.5246 -2.2321 -5.84152 23.118 -94.8312 27.8415 -0.0001 0 -0.000212544 -4.57969e-006 -65.5679 28.3288 0 -7.10543e-015 21.606 12.246 -24.269 2.4661 -1.575 2.6824 6.83205 -0.56634 8.92632 3.2298 -1.8647 1.8647 15.4508 5.93209 21.8676 2.6526 -1.5315 1.5315 10.0259 -0.188398 9.12514 9.1093 -0.5171 2.2601 -1.98785e-015 6.36111e-015 -1.59028e-015 3.6764 0 3.55271e-015 -2.16381e-005 -3.08318e-006 5.21454e-007 2.8831 0 0 1.98785e-015 0 -2.38542e-015 9.5334 0 -3.55271e-015 0.0159845 -4.27974e-006 -0.00192051 3.6982 -1.42109e-014 0 -0.0159806 -1.9786e-006 0.00192121 2.9509 1.42109e-014 7.10543e-015 7.95139e-016 3.18055e-015 -7.95139e-016 9.1045 -0.0439 -1.8651 -1.98785e-015 6.36111e-015 -1.59028e-015 3.154 1.42109e-014 0 -2.85177e-006 -7.41089e-007 1.62032e-006 2.9377 0 -3.55271e-015 -1.19271e-015 0 1.59028e-015 8.0778 -0.4887 -3.8061 0.507964 0.0179809 4.05448 3.6 1.42109e-014 -3.55271e-015 -0.507966 0.0179842 -4.05448 2.1142 -1.42109e-014 -3.55271e-015 7.95139e-016 0 7.95139e-016 -4.57 10.9462 -2.628 2.34632 -0.758328 -8.33582 -10.5928 -0.5248 -2.2321 75.9536 40.8454 -11.7126 -27.8415 1.77636e-015 1.42109e-014 1.38515e-005 3.99714e-006 12.5862 -28.3288 0 0.0001 -34.8977 -28.1082 -0.607453 -8.0767 -0.4885 -3.806 -6.46424e-006 1.66873e-007 -0.00159141 -3.6 0 0.0001 8.16434e-006 1.01232e-007 0.00159128 -2.1142 -1.42109e-014 0 -1.7119e-006 1.57625e-007 -8.61875e-008 -9.1036 -0.0439 -1.8651 -1.72369e-006 1.57625e-007 -2.98905e-007 -3.154 1.42109e-014 3.55271e-015 3.45918e-006 1.10186e-007 8.10529e-007 -2.9377 0 0 -1.7119e-006 -5.50931e-008 -8.61874e-008 -9.5325 -1.42109e-014 0 -1.72369e-006 1.57625e-007 -2.98905e-007 -3.6982 0 0 2.63715e-005 3.67155e-007 9.5125e-007 -2.9509 0 3.55271e-015 3.05555e-006 3.10944e-008 -0.00202228 -9.1083 -0.5168 2.2601 -1.72369e-006 1.57625e-007 -2.98905e-007 -3.6764 0 -3.55271e-015 9.3572e-006 2.82561e-007 2.74907e-007 -2.8831 0 0 -1.7119e-006 -2.67811e-007 -8.61875e-008 -2.4648 -1.5727 2.6826 -7.0717 -1.02972 -7.16068 -3.2298 -1.8647 1.8647 -1.34741 7.39579 -31.197 -2.6526 -1.5314 1.5314 -3.18968 0.3465 -11.1964 8.2078 -6.7517 -1.5996 -9.27386 -8.44047 7.80702 0 -44.3705 0.2846 -6.09229 21.7568 12.1976 1.42109e-014 -44.4279 -2.9822 0.20648 -1.40311 19.4435 -3.55271e-015 -8.7287 10.7106 -9.35739e-006 -37.2064 -2.51355e-005 -8.2078 -6.7517 -1.5996 -2.54194 -36.7657 -8.79874 7.10543e-015 -44.3705 0.2862 1.56791 37.0735 -5.68573 7.10543e-015 -44.4277 -2.9838 8.39291 -13.9214 -7.78181 0 -8.7287 10.7106 -7.24919e-007 -0.944902 4.73308e-006 
-18.7381 96.2632 -1.55287 -11.3805 15.0779 10.2838 -7.10543e-015 10.1816 0.1315 5.49232 -0.761343 -3.7925 0 10.0835 -1.0008 9.32669 -2.045 -9.08113 3.55271e-015 9.1 -1.3734 9.28405 -1.90342 -9.16013 1.77636e-015 16.6717 -2.5162 -1.14955 -1.34615 3.69913 -1.77636e-015 9.6179 1.685 -5.20539 5.27276 17.628 -2.88658e-015 17.8152 2.585 -1.39149e-015 0 -7.95139e-016 3.0676 6.4095 9.2836 -1.39149e-015 0 -7.95139e-016 -3.0676 6.4095 9.2835 -1.39149e-015 0 -7.95139e-016 4.5704 10.946 -2.628 -8.0418 0.709536 0.905867 10.5924 -0.5246 -2.2321 0.611216 33.4231 -96.8491 27.8415 -0.0001 0 -0.000198237 9.13665e-007 -57.632 28.3288 0 7.10543e-015 41.4106 3.12989 -12.2195 2.4661 -1.575 2.6824 6.83205 -0.56634 8.92632 3.2298 -1.8647 1.8647 15.4508 5.93209 21.8676 2.6526 -1.5315 1.5315 10.0259 -0.188398 9.12514 9.1093 -0.5171 2.2601 -3.18055e-015 3.18055e-015 -0 3.6764 0 1.42109e-014 -2.16381e-005 -3.08318e-006 5.21454e-007 2.8831 0 -7.10543e-015 1.59028e-015 6.36111e-015 -3.18055e-015 9.5334 -1.42109e-014 0 0.0159845 -4.27974e-006 -0.00192051 3.6982 0 0 -0.0159806 -1.9786e-006 0.00192121 2.9509 0 -7.10543e-015 -3.53113e-031 6.36111e-015 3.18055e-015 9.1045 -0.0439 -1.8651 -3.18055e-015 3.18055e-015 -0 3.154 1.42109e-014 0 -2.85177e-006 -7.41089e-007 1.62032e-006 2.9377 0 2.13163e-014 -3.18055e-015 -3.18055e-015 -3.18055e-015 8.0778 -0.4887 -3.8061 0.507964 0.0179809 4.05448 3.6 0 -7.10543e-015 -0.507966 0.0179842 -4.05448 2.1142 0 7.10543e-015 -4.77083e-015 3.18055e-015 -0 -4.57 10.9462 -2.628 2.52097 -0.738326 -8.14057 -10.5928 -0.5248 -2.2321 71.691 37.7868 -10.919 -27.8415 3.55271e-015 0 1.45905e-006 8.89117e-007 17.9894 -28.3288 0 0.0001 -39.4801 -37.9179 6.79462 -8.0767 -0.4885 -3.806 -6.46424e-006 1.66873e-007 -0.00159141 -3.6 0 0.0001 8.16434e-006 1.01232e-007 0.00159128 -2.1142 1.42109e-014 3.55271e-015 -1.7119e-006 1.57625e-007 -8.61875e-008 -9.1036 -0.0439 -1.8651 -1.72369e-006 1.57625e-007 -2.98905e-007 -3.154 0 0 3.45918e-006 1.10186e-007 8.10529e-007 -2.9377 0 0 -1.7119e-006 -5.50931e-008 -8.61874e-008 -9.5325 0 3.55271e-015 -1.72369e-006 1.57625e-007 -2.98905e-007 -3.6982 0 0 2.63715e-005 3.67155e-007 9.5125e-007 -2.9509 1.42109e-014 -3.55271e-015 3.05555e-006 3.10944e-008 -0.00202228 -9.1083 -0.5168 2.2601 -1.72369e-006 1.57625e-007 -2.98905e-007 -3.6764 0 0 9.3572e-006 2.82561e-007 2.74907e-007 -2.8831 1.42109e-014 3.55271e-015 -1.7119e-006 -2.67811e-007 -8.61875e-008 -2.4648 -1.5727 2.6826 -7.0717 -1.02972 -7.16068 -3.2298 -1.8647 1.8647 -1.34741 7.39579 -31.197 -2.6526 -1.5314 1.5314 -3.18968 0.3465 -11.1964 8.2078 -6.7517 -1.5996 -7.23802 -14.0879 8.82793 0 -44.3705 0.2846 -7.80572 30.0031 13.7929 -1.06581e-014 -44.4279 -2.9822 -6.32378 9.26435 13.8376 -3.55271e-015 -8.7287 10.7106 7.02181 -45.714 4.78582 -8.2078 -6.7517 -1.5996 3.88623 -36.9626 2.28284 0 -44.3705 0.2862 2.48319 38.4848 -5.59967 -7.10543e-015 -44.4277 -2.9838 5.36168 -16.4069 -2.03306 0 -8.7287 10.7106 -3.72131e-006 -3.89694 1.89755e-006 
-18.4482 96.2094 -1.06605 -11.1472 14.3908 12.5319 -3.55271e-015 10.1816 0.1315 4.77965 -0.910219 -4.5453 0 10.0835 -1.0008 8.87958 -2.32697 -10.618 0 9.1 -1.3734 8.82879 -2.19779 -10.6965 -8.88178e-016 16.6717 -2.5162 -0.842538 -1.46532 3.98721 -8.88178e-016 9.6179 1.685 -4.75951 4.80514 19.2978 2.22045e-016 17.8152 2.585 -1.98785e-015 3.18055e-015 7.95139e-016 3.0676 6.4095 9.2836 -1.98785e-015 3.18055e-015 7.95139e-016 -3.0676 6.4095 9.2835 -1.98785e-015 3.18055e-015 7.95139e-016 4.5704 10.946 -2.628 -9.62901 -0.209811 3.15236 10.5924 -0.5246 -2.2321 0.930168 45.5576 -96.6199 27.8415 -0.0001 0 -0.000210265 -1.04294e-006 -44.4815 28.3288 0 0 54.4948 -6.19009 -12.1485 2.4661 -1.575 2.6824 6.83205 -0.56634 8.92632 3.2298 -1.8647 1.8647 15.4508 5.93209 21.8676 2.6526 -1.5315 1.5315 10.0259 -0.188398 9.12514 9.1093 -0.5171 2.2601 -0 -3.18055e-015 -0 3.6764 7.10543e-015 -1.42109e-014 -2.16381e-005 -3.08318e-006 5.21454e-007 2.8831 -7.10543e-015 2.84217e-014 -6.36111e-015 3.18055e-015 3.18055e-015 9.5334 7.10543e-015 0 0.0159845 -4.27974e-006 -0.00192051 3.6982 -7.10543e-015 7.10543e-015 -0.0159806 -1.9786e-006 0.00192121 2.9509 2.13163e-014 -1.42109e-014 -6.36111e-015 3.18055e-015 -3.18055e-015 9.1045 -0.0439 -1.8651 -0 -3.18055e-015 -0 3.154 7.10543e-015 1.42109e-014 -2.85177e-006 -7.41089e-007 1.62032e-006 2.9377 7.10543e-015 0 -0 0 6.36111e-015 8.0778 -0.4887 -3.8061 0.507964 0.0179809 4.05448 3.6 -7.10543e-015 -1.42109e-014 -0.507966 0.0179842 -4.05448 2.1142 0 0 -3.18055e-015 -9.54166e-015 -0 -4.57 10.9462 -2.628 2.9907 -0.83114 -8.53429 -10.5928 -0.5248 -2.2321 68.0363 34.3151 -5.59843 -27.8415 -7.10543e-015 1.42109e-014 -1.53367e-005 -2.37195e-006 22.3948 -28.3288 0 0.0001 -37.775 -43.3941 13.7901 -8.0767 -0.4885 -3.806 -6.46424e-006 1.66873e-007 -0.00159141 -3.6 1.42109e-014 0.0001 8.16434e-006 1.01232e-007 0.00159128 -2.1142 0 0 -1.7119e-006 1.57625e-007 -8.61875e-008 -9.1036 -0.0439 -1.8651 -1.72369e-006 1.57625e-007 -2.98905e-007 -3.154 0 -7.10543e-015 3.45918e-006 1.10186e-007 8.10529e-007 -2.9377 0 -1.42109e-014 -1.7119e-006 -5.50931e-008 -8.61874e-008 -9.5325 -1.42109e-014 -1.42109e-014 -1.72369e-006 1.57625e-007 -2.98905e-007 -3.6982 -1.42109e-014 7.10543e-015 2.63715e-005 3.67155e-007 9.5125e-007 -2.9509 1.42109e-014 7.10543e-015 3.05555e-006 3.10944e-008 -0.00202228 -9.1083 -0.5168 2.2601 -1.72369e-006 1.57625e-007 -2.98905e-007 -3.6764 -1.42109e-014 -1.42109e-014 9.3572e-006 2.82561e-007 2.74907e-007 -2.8831 -1.42109e-014 0 -1.7119e-006 -2.67811e-007 -8.61875e-008 -2.4648 -1.5727 2.6826 -7.0717 -1.02972 -7.16068 -3.2298 -1.8647 1.8647 -1.34741 7.39579 -31.197 -2.6526 -1.5314 1.5314 -3.18968 0.3465 -11.1964 8.2078 -6.7517 -1.5996 -3.97844 -21.2019 11.1512 0 -44.3705 0.2846 -10.1291 44.5945 16.6877 -3.55271e-015 -44.4279 -2.9822 -5.14569 18.953 8.01285 3.55271e-015 -8.7287 10.7106 1.94289 -42.1431 1.28085 -8.2078 -6.7517 -1.5996 6.52574 -34.5823 4.4514 -3.55271e-015 -44.3705 0.2862 2.48662 40.0537 -6.73959 3.55271e-015 -44.4277 -2.9838 3.31011 -18.9719 0.192692 3.55271e-015 -8.7287 10.7106 -4.45649e-007 -5.44459 -1.23056e-006 
-18.0942 95.5067 -0.850389 -11.1322 11.9526 14.821 0 10.1816 0.1315 3.75717 -0.301982 -5.01064 0 10.0835 -1.0008 8.35808 -1.13523 -11.5543 -1.77636e-015 9.1 -1.3734 8.30708 -1.04389 -11.6058 -2.22045e-015 16.6717 -2.5162 -0.197163 -2.02013 3.71662 -6.66134e-016 9.6179 1.685 -4.00877 4.08141 18.594 4.996e-015 17.8152 2.585 -2.20695e-032 -1.59028e-015 -7.95139e-016 3.0676 6.4095 9.2836 -2.20695e-032 -1.59028e-015 -7.95139e-016 -3.0676 6.4095 9.2835 -2.20695e-032 -1.59028e-015 -7.95139e-016 4.5704 10.946 -2.628 -10.8087 -1.83286 7.57161 10.5924 -0.5246 -2.2321 -18.7673 56.0848 -81.3052 27.8415 -0.0001 0 -0.000212329 9.13555e-008 -27.4376 28.3288 0 2.84217e-014 38.8225 -8.54845 -27.645 2.4661 -1.575 2.6824 6.83205 -0.56634 8.92632 3.2298 -1.8647 1.8647 15.4508 5.93209 21.8676 2.6526 -1.5315 1.5315 10.0259 -0.188398 9.12514 9.1093 -0.5171 2.2601 0 6.36111e-015 -0 3.6764 0 -1.42109e-014 -2.16381e-005 -3.08318e-006 5.21454e-007 2.8831 -7.10543e-015 0 0 0 -3.18055e-015 9.5334 -7.10543e-015 0 0.0159845 -4.27974e-006 -0.00192051 3.6982 0 1.42109e-014 -0.0159806 -1.9786e-006 0.00192121 2.9509 -1.42109e-014 1.42109e-014 -6.36111e-015 0 -3.18055e-015 9.1045 -0.0439 -1.8651 0 6.36111e-015 -0 3.154 -1.42109e-014 0 -2.85177e-006 -7.41089e-007 1.62032e-006 2.9377 0 0 -6.36111e-015 -3.18055e-015 -3.18055e-015 8.0778 -0.4887 -3.8061 0.507964 0.0179809 4.05448 3.6 0 -1.42109e-014 -0.507966 0.0179842 -4.05448 2.1142 -7.10543e-015 0 0 3.18055e-015 -0 -4.57 10.9462 -2.628 3.8868 -1.12706 -9.90054 -10.5928 -0.5248 -2.2321 64.2154 34.273 3.9332 -27.8415 0 7.10543e-015 -9.60352e-007 -5.59385e-006 25.6471 -28.3288 -7.10543e-015 0.0001 -35.2789 -41.1763 14.2891 -8.0767 -0.4885 -3.806 -6.46424e-006 1.66873e-007 -0.00159141 -3.6 0 0.0001 8.16434e-006 1.01232e-007 0.00159128 -2.1142 0 0 -1.7119e-006 1.57625e-007 -8.61875e-008 -9.1036 -0.0439 -1.8651 -1.72369e-006 1.57625e-007 -2.98905e-007 -3.154 0 1.42109e-014 3.45918e-006 1.10186e-007 8.10529e-007 -2.9377 0 -7.10543e-015 -1.7119e-006 -5.50931e-008 -8.61874e-008 -9.5325 7.10543e-015 7.10543e-015 -1.72369e-006 1.57625e-007 -2.98905e-007 -3.6982 0 -7.10543e-015 2.63715e-005 3.67155e-007 9.5125e-007 -2.9509 0 0 3.05555e-006 3.10944e-008 -0.00202228 -9.1083 -0.5168 2.2601 -1.72369e-006 1.57625e-007 -2.98905e-007 -3.6764 0 7.10543e-015 9.3572e-006 2.82561e-007 2.74907e-007 -2.8831 -7.10543e-015 7.10543e-015 -1.7119e-006 -2.67811e-007 -8.61875e-008 -2.4648 -1.5727 2.6826 -7.0717 -1.02972 -7.16068 -3.2298 -1.8647 1.8647 -1.34741 7.39579 -31.197 -2.6526 -1.5314 1.5314 -3.18968 0.3465 -11.1964 8.2078 -6.7517 -1.5996 2.10669 -28.9799 14.4244 -3.55271e-015 -44.3705 0.2846 -12.5411 62.1298 20.5549 -7.10543e-015 -44.4279 -2.9822 2.20422 21.8107 5.47786 -3.55271e-015 -8.7287 10.7106 -1.06062e-005 -24.4118 -2.49806e-006 -8.2078 -6.7517 -1.5996 6.14455 -31.7904 -0.361138 -3.55271e-015 -44.3705 0.2862 1.32532 41.6097 -9.46048 3.55271e-015 -44.4277 -2.9838 4.62647 -22.421 0.551559 0 -8.7287 10.7106 -8.62981e-007 -5.6989 1.97343e-006 
